<mxfile host="app.diagrams.net" modified="2024-06-15T13:49:00.169Z" agent="Mozilla/5.0 (Windows NT 10.0; Win64; x64) AppleWebKit/537.36 (KHTML, like Gecko) Chrome/126.0.0.0 Safari/537.36" etag="UlBW6XLYTF1d3LxUT0y4" version="24.5.4" type="device">
  <diagram name="Page-1" id="yRgI9ryyjb29Eyp8XaVW">
    <mxGraphModel dx="1050" dy="565" grid="1" gridSize="10" guides="1" tooltips="1" connect="1" arrows="1" fold="1" page="1" pageScale="1" pageWidth="850" pageHeight="1100" math="0" shadow="0">
      <root>
        <mxCell id="0" />
        <mxCell id="1" parent="0" />
        <mxCell id="GtqdbThTcfgjpgIIF2Dk-2" value="&lt;h1 style=&quot;margin-top: 0px;&quot;&gt;motor-sizing-application&lt;/h1&gt;&lt;p&gt;The purpose of this document is to list the requirements of a motor sizing application, which is going to be used by a mechanical design engineer to validate the fit of a specific motor for a required application.&lt;/p&gt;&lt;p&gt;&lt;b&gt;Main features:&lt;/b&gt;&lt;/p&gt;&lt;p&gt;&lt;/p&gt;&lt;ul&gt;&lt;li&gt;User must be able to create a new project or open an already created one&lt;/li&gt;&lt;/ul&gt;&lt;div&gt;&lt;br&gt;&lt;/div&gt;&lt;ul&gt;&lt;li&gt;a project must contain all the information needed to validate the motors. If a project is saved and info is not complete, None values are assigned to the corresponding parameters. If user has saved a complete project the program must be able to retrieve the exact same solution based only on the information contained in the project file (plus the motion profile file if the motion profile is passed directly)&lt;/li&gt;&lt;/ul&gt;&lt;div&gt;&lt;br&gt;&lt;/div&gt;&lt;ul&gt;&lt;li&gt;motion profile is used to generate the stress profile for the motor: motion profile can be passed directly to the program (select file in device through a dialogue window) or built inside the program by defining segments (Dposition, Dtime) and selecting a motion law to be used (e.g. trapezoidal, cycloid, ...)&lt;/li&gt;&lt;/ul&gt;&lt;br&gt;&lt;p&gt;&lt;/p&gt;&lt;p&gt;&lt;br&gt;&lt;/p&gt;&lt;p&gt;&lt;br&gt;&lt;/p&gt;&lt;p&gt;&lt;br&gt;&lt;/p&gt;&lt;p&gt;&lt;br&gt;&lt;/p&gt;" style="text;html=1;whiteSpace=wrap;overflow=hidden;rounded=0;" parent="1" vertex="1">
          <mxGeometry x="40" y="40" width="710" height="510" as="geometry" />
        </mxCell>
      </root>
    </mxGraphModel>
  </diagram>
</mxfile>
